<svg xmlns="http://www.w3.org/2000/svg" viewBox="0 0 48 48">
  <rect width="48" height="48" rx="11" fill="#0F1B2D"/>
  <path fill="#29B6F6" fill-rule="evenodd" transform="translate(6 6) scale(0.36)"
    d="M70.9 99.3a6.2 6.2 0 0 0 4.9-.2l20.7-10a6.2 6.2 0 0 0 3.5-5.6V16.4a6.2 6.2 0 0 0-3.5-5.6L75.8.9a6.2 6.2 0 0 0-7.1 1.2L29 38.3 11.7 25.2a4.1 4.1 0 0 0-5.3.2L.9 30.5a4.1 4.1 0 0 0 0 6l15 13.6L.9 63.7a4.1 4.1 0 0 0 0 6l5.6 5.1a4.1 4.1 0 0 0 5.3.2L29 61.9l39.7 36.1a6.2 6.2 0 0 0 2.2 1.3zM75.2 27.3 45.1 50 75.2 72.7z"/>
</svg>
